<svg width="135" height="166" viewBox="0 0 135 166" fill="none" xmlns="http://www.w3.org/2000/svg">
<path d="M-2.54656 134.502C14.7165 126.224 32.9591 116.767 43.5796 100.157C49.135 91.4729 51.5933 80.9389 55.8763 71.6418C60.1815 62.2781 73.065 51.5909 83.863 50.688C85.1187 50.5859 85.1288 48.6236 83.8564 48.7201C77.5844 49.2459 68.9373 54.3654 64.2161 58.2657C56.2335 64.8728 52.7458 73.3967 49.1727 82.8713C44.6256 94.9395 39.2655 104.582 29.4337 113.149C19.7882 121.53 7.92192 127.317 -3.52061 132.791C-4.66652 133.338 -3.6836 135.04 -2.54656 134.502Z" fill="#FA7001"/>
<path d="M31.3483 110.103C19.2402 110.474 3.40139 86.8438 12.4955 76.5072C14.2305 74.5504 20.7576 73.1704 21.0028 77.9393C21.1026 79.7475 20.457 81.9018 20.1165 83.6845C19.7193 85.7899 19.6096 87.7856 20.0533 89.8933C21.0716 94.7543 26.6103 96.8031 30.8945 96.224C35.1465 95.6328 37.3363 90.5588 37.445 86.8782C37.6103 80.9223 32.9345 74.6602 30.0781 69.8403C28.0957 66.4979 25.8871 63.0491 25.5155 59.0944C25.0928 54.5695 33.548 43.7183 33.3783 51.2316C33.2485 57.0189 32.4941 61.8776 37.2242 65.9332C39.8034 68.1463 42.824 66.7674 44.8197 64.6609C49.167 60.1138 47.4488 53.6011 48.2009 48.0568C48.8531 43.2557 57.1807 40.2528 57.1984 45.6706C57.1984 46.5581 57.0487 47.4622 56.9677 48.3418C56.8967 49.2115 56.9012 50.4273 57.4969 51.1406C59.7898 53.8839 64.3158 50.7335 66.0995 48.9275C70.2117 44.8153 68.388 34.6141 69.2189 29.5013C70.3715 22.4472 76.2875 18.9718 82.8102 18.1953C85.183 17.908 87.5469 18.2063 89.8643 18.7288C100.991 21.2469 91.9398 27.9017 89.7544 29.5989C87.4704 31.3949 83.6999 34.8327 86.0938 38.1185C89.1222 42.2784 93.3808 41.148 97.9389 40.1618C103.119 39.0636 106.64 39.0037 110.768 42.9073C117.349 49.1283 114.999 59.8199 105.299 60.6896C99.1503 61.2475 94.0797 58.1537 87.9541 60.4411C82.4186 62.4933 79.9626 66.347 84.1425 71.086C86.8658 74.1754 90.6141 76.4395 93.7801 79.042C97.1901 81.8441 102.945 90.3547 94.2904 90.845C89.9308 91.1001 84.8513 86.1072 81.6155 83.7077C78.0734 81.082 74.436 78.5739 70.1541 77.3536C62.1427 75.0707 54.6826 83.8841 56.9744 91.6426C58.3167 96.1797 60.8913 99.0184 65.7246 99.5542C68.5666 99.8626 71.8192 98.5181 74.6224 98.3329C83.0532 97.7782 84.5375 106.633 78.5849 110.389C71.9779 114.555 66.0408 111.219 60.4355 107.528C58.442 106.216 54.4263 104.197 52.2798 106.476C49.9636 108.926 49.7728 111.513 51.2038 114.541C52.3896 117.038 55.763 122.628 48.2064 123.151C45.6306 123.331 42.5179 121.008 40.6088 119.545C38.084 117.61 35.8354 115.067 34.0561 112.453C33.345 111.412 31.6422 112.382 32.3522 113.425C35.4272 117.938 48.5337 131.61 54.0214 122.373C54.7447 121.139 55.3127 119.861 54.9 118.388C54.3276 116.343 49.0429 106.674 55.9927 107.578C61.5537 108.296 64.9437 113.891 71.0549 114.28C77.9525 114.726 88.7506 108.166 83.1397 100.576C80.1612 96.5436 75.2625 96.0733 70.7343 96.8298C65.474 97.7195 59.8265 99.7728 58.6772 89.3631C58.2524 85.4838 60.6651 81.7399 63.8599 79.8097C67.4352 77.6543 71.8735 79.8052 75.0473 81.6012C81.1673 85.0656 89.3928 95.3876 97.2833 92.1119C105.691 88.6297 98.0521 80.0281 94.2538 76.9043C90.8549 74.1133 86.5142 71.6872 84.1469 67.8646C81.4846 63.5604 91.038 61.4395 93.2111 61.2853C97.1802 60.9991 101.291 62.5455 105.306 62.6575C118.968 63.0169 118.176 47.2137 110.832 40.2694C106.921 36.571 102.282 37.261 97.4409 38.2638C95.3931 38.692 93.4751 39.1013 91.3585 39.1989C80.9942 39.6903 90.3024 31.6689 91.1411 30.9856C92.8816 29.5778 95.595 27.9739 96.305 25.6665C99.9979 13.8091 79.5744 15.7293 73.948 18.9596C68.7165 21.9503 67.3109 27.8596 66.7496 33.3906C66.1728 39.1146 68.1318 47.4056 60.7571 49.9881C58.016 50.9543 59.193 45.1183 59.0422 43.9601C58.6639 40.9217 55.6244 40.6999 53.1684 40.9595C47.7028 41.5441 46.1675 46.6069 45.97 51.2416C45.8047 55.356 46.162 58.6374 44.041 62.4223C41.4995 66.9827 36.6297 64.0874 35.4815 60.1549C34.9646 58.3867 35.1676 56.1647 35.2164 54.341C35.2741 51.7763 36.6285 46.1842 33.3405 45.0128C30.1679 43.8813 25.4445 51.2449 24.6679 53.4635C22.5237 59.5792 24.4428 63.9388 27.4967 69.3156C31.2939 76.0125 40.4479 87.181 31.7598 93.7615C24.1799 99.4999 21.4465 87.8565 22.0145 84.1825C22.2596 82.6506 22.5903 81.122 22.8232 79.58C23.1294 77.5877 23.0007 75.8972 21.8825 74.2421C20.0921 71.5953 15.3764 72.7833 13.0047 73.7573C9.44939 75.2271 8.48204 79.5667 8.31565 82.9501C7.76099 94.6866 18.3183 112.461 31.3549 112.071C32.6161 112.029 32.6217 110.072 31.3483 110.103Z" fill="#FA7001"/>
</svg>
