<svg width="136" height="207" viewBox="0 0 136 207" fill="none" xmlns="http://www.w3.org/2000/svg">
<path d="M138.477 203.872C115.757 203.579 92.583 199.685 70.2342 194.959C60.845 192.972 15.9458 181.053 30.2888 162.648C34.5793 157.141 43.3891 152.956 43.3954 144.391C43.4038 135.041 30.0873 131.584 24.5457 129.584C18.0092 127.228 11.1494 125.032 5.91853 119.642C-5.13098 108.261 9.29597 95.9428 17.8602 92.0516C27.3144 87.7566 38.5885 85.1012 38.9811 71.0825C39.2015 63.1674 35.7443 54.8266 33.4752 47.5762C29.9026 36.1748 28.0806 25.8984 30.9395 13.8907C35.8136 -6.59903 51.8631 9.26161 58.4794 18.6338C65.0537 27.9466 70.2132 38.5095 76.4705 48.0966C77.0646 49.0067 78.1665 49.1431 78.7375 48.0966C86.2941 34.2392 112.287 8.20729 113.708 41.1718C114.373 56.6303 107.291 73.7589 114.955 88.0231C115.343 88.744 116.109 88.9789 116.75 88.5702C125.001 83.324 135.578 72.8643 145.505 74.5316C155.906 76.279 149.76 100.412 148.133 106.723C146.668 112.396 141.745 121.828 142.451 127.787C142.719 130.061 143.059 134.737 145.54 135.531C149.203 136.708 157.257 138.135 156.011 145.453C152.6 165.454 144.149 184.869 138.611 204.181C138.076 206.055 140.61 206.852 141.143 204.992C145.857 188.55 151.216 172.399 156.135 156.043C157.577 151.248 161.439 142.105 156.714 138.091C154.692 136.373 151.764 132.86 149.241 132.532C142.239 131.615 147.201 119.432 148.513 114.952C151.556 104.55 156.888 89.2082 152.417 78.2517C146.078 62.7272 128.263 77.2519 120.161 82.8036C113.408 87.431 114.054 77.0353 114.057 70.7427C114.059 64.0936 115.179 57.3837 115.845 50.7951C116.806 41.2911 117.033 30.0684 110.23 23.327C99.8835 13.0792 83.5149 35.3002 78.3764 43.2296C76.3319 46.3855 72.8685 36.9988 71.1451 34.0407C68.2337 29.0466 65.3538 23.9992 62.1716 19.2295C57.5285 12.2627 49.7367 -0.0504608 40.8891 0.270248C24.1385 0.873795 25.7128 29.5451 29.1217 42.308C32.2724 54.1057 42.5747 73.6807 30.6583 82.6738C23.3535 88.1864 13.8216 88.7298 6.85266 95.0576C-6.3652 107.058 1.44965 122.558 14.1469 128.736C21.7099 132.415 37.0625 133.571 40.6121 143.603C42.7342 149.604 30.4232 157.933 27.5579 161.609C16.458 175.856 39.3316 187.621 47.793 191.33C60.6582 196.969 74.659 199.184 88.2169 201.252C104.936 203.802 121.582 206.708 138.477 206.928C140.171 206.95 140.169 203.894 138.477 203.872Z" fill="#FA7001"/>
<path d="M141.503 204.32C120.506 178.144 105.93 144.991 90.4056 114.318C74.121 82.1406 59.5955 48.7495 40.2546 18.8482C39.2513 17.2937 36.9696 18.8139 37.9877 20.3904C58.0863 51.4622 73.1723 86.285 90.0929 119.72C105.122 149.416 119.316 181.133 139.648 206.483C140.804 207.925 142.656 205.76 141.503 204.32Z" fill="#FA7001"/>
<path d="M43.3577 60.0504C52.6189 65.4723 62.1676 71.1262 70.3792 78.555C71.393 79.4717 72.8728 78.665 72.5726 77.0665C70.5911 66.5457 69.7997 55.7745 67.6755 45.2881C67.2871 43.3716 64.7557 44.1831 65.1441 46.0996C67.2683 56.586 68.0617 67.3563 70.0411 77.8781C70.7716 77.3843 71.5042 76.8878 72.2347 76.3914C63.83 68.7914 54.1637 62.9637 44.6801 57.4101C43.1751 56.5298 41.8443 59.1652 43.3577 60.0504Z" fill="#FA7001"/>
<path d="M34.224 97.7415C53.9931 97.5286 71.1866 105.992 88.8376 115.459C89.524 115.829 90.6239 115.606 90.7645 114.546C92.8909 98.4795 95.5336 82.5177 97.7607 66.4691C98.0273 64.543 95.4979 63.717 95.2293 65.6575C93.825 75.7897 92.257 85.8884 90.7331 95.994C90.0677 100.421 89.44 104.853 88.8229 109.29C88.2267 113.587 78.2793 106.576 76.7029 105.779C63.0758 98.9054 49.1274 94.5273 34.224 94.6859C32.5322 94.706 32.5301 97.7616 34.224 97.7415Z" fill="#FA7001"/>
<path d="M55.9137 139.298C73.7474 138.997 90.6827 145.566 107.343 152.28C108.176 152.618 108.976 151.746 109.003 150.807C109.455 134.815 114.125 119.532 114.6 103.547C114.658 101.577 112.032 101.585 111.976 103.547C111.705 112.704 110.072 121.547 108.531 130.496C107.398 137.081 109.006 149.696 101.466 146.705C86.7239 140.852 71.598 135.979 55.9137 136.242C54.2219 136.272 54.2198 139.327 55.9137 139.298Z" fill="#FA7001"/>
<path d="M74.4568 171.023C90.8527 175.79 107.61 178.391 124.136 182.429C124.801 182.59 125.595 182.214 125.75 181.361C128.411 166.676 135.597 153.87 137.643 138.991C137.908 137.064 135.378 136.238 135.112 138.179C134.484 142.755 125.618 179.674 121.096 178.569C105.809 174.836 90.3259 172.487 75.1538 168.077C73.5123 167.598 72.8153 170.544 74.4568 171.023Z" fill="#FA7001"/>
</svg>
