<svg width="71" height="86" viewBox="0 0 71 86" fill="none" xmlns="http://www.w3.org/2000/svg">
<path d="M26.7816 23.2926C18.5483 28.4704 10.4736 35.3477 7.67095 45.7742C5.17629 55.0555 11.1176 63.5585 17.079 69.1785C24.519 76.187 33.9963 80.8254 43.3443 83.6878C49.4136 85.5479 58.2163 87.2812 63.547 82.3347C74.247 72.4123 69.4643 51.0656 66.4096 38.3943C64.5576 30.7093 61.3149 22.1223 54.1496 18.8679C44.7963 14.6215 35.7403 18.9769 26.931 22.7841C25.9417 23.2115 26.371 24.9935 27.3737 24.5601C34.6577 21.4119 41.7563 17.8465 49.7776 19.2555C58.2696 20.7457 62.4017 29.5508 64.531 37.7974C67.571 49.5696 70.7763 64.8585 65.7883 76.4553C58.7389 92.8437 32.8989 78.4229 23.7776 72.2413C16.4083 67.2462 9.22697 59.9887 8.85897 49.8172C8.44964 38.4459 19.8377 29.7778 27.623 24.8844C28.5564 24.2963 27.7176 22.7045 26.7816 23.2926Z" fill="#FA7001"/>
<path d="M26.9303 22.784C15.085 27.9736 13.877 10.0597 8.53171 2.84634C8.19438 3.32979 7.85704 3.81177 7.52104 4.29374C14.533 9.76638 24.3996 13.4129 25.9703 23.972C26.145 25.1423 27.7503 24.6441 27.5769 23.4826C25.9209 12.3516 15.7597 8.47523 8.36238 2.7019C7.53171 2.05485 6.797 3.40055 7.353 4.15077C13.2037 12.0436 14.3117 30.2818 27.373 24.5601C28.3597 24.1282 27.9303 22.3448 26.9303 22.784Z" fill="#FA7001"/>
<path d="M27.8107 22.1768C26.0333 15.4115 25.74 8.26594 29.56 2.27741C29.0787 2.27741 28.6 2.27741 28.12 2.27741C31.3707 8.17898 31.2454 17.7211 26.9401 22.9668C26.2201 23.8452 27.396 25.1526 28.12 24.2712C32.9321 18.4021 33.2147 7.98294 29.56 1.34735C29.2147 0.720938 28.4774 0.787264 28.12 1.34735C24.0627 7.70879 24.3107 15.4616 26.204 22.6661C26.504 23.804 28.112 23.3191 27.8107 22.1768Z" fill="#FA7001"/>
<path d="M26.6116 23.4356C18.8649 30.8759 7.87291 29.3888 1.40757 20.8106C1.2849 21.325 1.1622 21.8379 1.03954 22.3508C5.08087 20.8238 9.67023 17.8908 14.0356 19.179C15.0742 19.4855 15.5169 17.7095 14.4782 17.4029C9.69554 15.9909 5.02756 18.9004 0.596893 20.5747C-0.0284401 20.8106 -0.181742 21.5696 0.228925 22.115C7.30493 31.5024 19.4049 32.7935 27.7916 24.74C28.6036 23.9589 27.4183 22.6618 26.6116 23.4356Z" fill="#FA7001"/>
<path d="M13.2812 46.3462C13.9092 47.7125 14.9879 48.6293 16.0612 49.5476C16.9012 50.2654 18.0892 48.9712 17.2412 48.2446C16.2839 47.4266 15.2799 46.6351 14.7213 45.4176C14.2346 44.3578 12.7959 45.2908 13.2812 46.3462Z" fill="#FA7001"/>
<path d="M26.3573 35.7989C27.616 36.9117 28.5107 38.3605 29.4001 39.8256C29.9961 40.8058 31.44 39.8846 30.84 38.8956C29.876 37.3111 28.8973 35.7016 27.5373 34.4944C26.7066 33.7604 25.52 35.0545 26.3573 35.7989Z" fill="#FA7001"/>
<path d="M44.1918 26.2373C45.2878 26.8638 46.0451 27.8586 46.5091 29.1188C46.9078 30.2036 48.5197 29.7305 48.1157 28.6295C47.4904 26.9316 46.5305 25.5034 45.0332 24.6456C44.0798 24.1002 43.2384 25.6905 44.1918 26.2373Z" fill="#FA7001"/>
<path d="M26.443 49.776C27.3817 50.9699 28.3524 52.1402 29.6377 52.883C30.5897 53.4313 31.4324 51.841 30.4791 51.2912C29.3164 50.6205 28.4698 49.552 27.6231 48.4716C26.9164 47.5725 25.7417 48.8813 26.443 49.776Z" fill="#FA7001"/>
<path d="M39.6303 41.127C40.625 42.0025 41.449 43.0873 42.2796 44.1426C42.9863 45.0417 44.1596 43.7314 43.4596 42.8397C42.6276 41.7844 41.8023 40.6996 40.8089 39.8241C39.9769 39.0916 38.7903 40.3856 39.6303 41.127Z" fill="#FA7001"/>
<path d="M26.9036 63.7C28.6702 65.23 30.2929 66.9515 32.0595 68.4814C32.8955 69.2036 34.0836 67.9096 33.2396 67.177C31.4703 65.6486 29.8502 63.927 28.0822 62.3956C27.2462 61.6734 26.0582 62.9675 26.9036 63.7Z" fill="#FA7001"/>
<path d="M40.2597 55.1941C41.197 55.9709 42.2531 56.5457 43.1904 57.324C44.0518 58.0359 44.881 56.4352 44.0317 55.7321C43.0944 54.9554 42.0384 54.3805 41.1011 53.6023C40.2411 52.8904 39.4104 54.4911 40.2597 55.1941Z" fill="#FA7001"/>
<path d="M53.7004 41.0503C54.6591 42.6097 55.7016 44.0895 56.5443 45.733C57.0749 46.7677 58.515 45.8391 57.9844 44.8044C57.1404 43.1595 56.0977 41.6797 55.1404 40.1203C54.5404 39.1431 53.0964 40.0643 53.7004 41.0503Z" fill="#FA7001"/>
<path d="M42.9526 66.5151C44.154 67.5601 45.2047 68.7953 46.406 69.8418C47.2407 70.567 48.4287 69.2729 47.5847 68.5374C46.3833 67.4923 45.3326 66.2572 44.1313 65.2107C43.2966 64.4855 42.1086 65.7796 42.9526 66.5151Z" fill="#FA7001"/>
<path d="M53.4894 54.8506C54.5067 56.1417 55.5373 57.4167 56.6147 58.6474C57.364 59.5008 58.5414 58.1964 57.7948 57.343C56.7161 56.1137 55.6854 54.8388 54.6693 53.5462C53.9627 52.6486 52.7894 53.9574 53.4894 54.8506Z" fill="#FA7001"/>
<path d="M55.8461 71.8964C56.7461 73.0402 57.6461 74.1854 58.5448 75.3292C59.2514 76.2283 60.4247 74.918 59.7247 74.0262C58.8247 72.881 57.9247 71.7373 57.0247 70.5935C56.3181 69.6959 55.1434 71.0047 55.8461 71.8964Z" fill="#FA7001"/>
<path d="M48.2466 77.8024C49.4093 78.473 50.2573 79.5446 51.1066 80.6235C51.8133 81.5211 52.9879 80.2123 52.2866 79.3205C51.3452 78.1252 50.3745 76.9549 49.0879 76.2106C48.1359 75.6623 47.2946 77.2512 48.2466 77.8024Z" fill="#FA7001"/>
<path d="M61.76 60.0389C62.548 60.7317 63.0386 61.5659 63.476 62.5564C63.9493 63.625 65.3866 62.6891 64.9159 61.6278C64.4226 60.5135 63.824 59.5142 62.94 58.736C62.108 58.0049 60.92 59.299 61.76 60.0389Z" fill="#FA7001"/>
<path d="M54.1722 27.6229C55.1842 28.9273 56.0723 30.3393 57.2976 31.4197C58.1296 32.1522 59.3163 30.8581 58.4763 30.1167C57.2496 29.0363 56.3616 27.6243 55.3523 26.3199C54.651 25.4149 53.4776 26.7252 54.1722 27.6229Z" fill="#FA7001"/>
<path d="M16.0078 59.9489C16.6664 61.0071 17.4518 61.9858 18.3611 62.7876C19.1931 63.5187 20.3811 62.2246 19.5411 61.4832C18.7438 60.7816 18.0237 59.9474 17.4477 59.0188C16.8424 58.0475 15.3971 58.9672 16.0078 59.9489Z" fill="#FA7001"/>
<path d="M26.1849 22.8166C24.2303 20.7325 22.2502 18.6779 20.4582 16.4213C19.7462 15.5267 18.5729 16.8355 19.2782 17.7242C21.0729 19.9808 23.0515 22.0354 25.0049 24.1195C25.7782 24.9449 26.9583 23.6435 26.1849 22.8166Z" fill="#FA7001"/>
</svg>
