<svg width="178" height="251" viewBox="0 0 178 251" fill="none" xmlns="http://www.w3.org/2000/svg">
<path d="M166.821 -18.6124C166.681 9.16209 162.368 36.4556 147.946 59.9704C133.476 83.5746 110.757 100.033 89.7714 116.181C78.2866 125.013 67.0048 134.099 56.7388 144.561C51.7698 149.626 46.9102 155.029 42.8007 160.924C41.5663 162.689 35.2067 173.097 41.7069 166.292C44.1445 163.747 45.8477 160.179 47.9572 157.288C55.395 147.053 65.3485 138.992 75.0521 131.436C83.4274 124.915 93.0997 117.489 103.6 115.95C104.256 115.854 104.772 116.218 104.834 116.967C106.178 135.021 104.069 153.25 104.569 171.34C104.647 174.677 104.803 178.086 105.616 181.323C106.788 186.064 108.225 177.381 108.272 176.557C108.96 162.061 107.475 147.365 107.538 132.849C107.553 127.325 106.241 118.972 109.257 114.257C112.147 109.719 116.022 105.864 119.71 102.116C129.398 92.3 140.07 83.9189 148.742 72.9505C158.633 60.443 165.446 44.9566 169.353 29.1597C171.4 20.895 172.353 12.3265 173.212 3.84582C173.619 -0.0544608 173.962 -3.96148 174.322 -7.86513C175.009 -14.967 174.665 -18.712 166.618 -16.4707C165.399 -16.1315 164.884 -18.1652 166.103 -18.5044C169.697 -19.5086 172.962 -19.0158 176.509 -17.9424C176.9 -17.826 177.275 -17.3855 177.228 -16.9247C174.947 3.59436 174.447 24.9927 166.79 44.2714C159.149 63.5281 148.024 78.633 133.304 92.1347C126.351 98.5108 119.335 104.843 113.241 112.208C108.585 117.843 109.585 125.747 109.491 132.849C109.413 139 109.553 145.157 109.71 151.306C109.928 160.198 110.569 169.146 110.147 178.04C110.007 180.931 109.694 182.926 107.569 184.592C103.116 188.091 102.741 174.294 102.663 172.795C101.959 158.542 103.022 144.183 103.178 129.924C103.209 126.841 103.178 123.757 103.084 120.677C102.959 116.552 100.647 118.598 97.5998 119.73C89.1932 122.866 81.521 128.996 74.3645 134.562C66.5829 140.621 59.239 147.223 52.6137 154.732C47.8323 160.149 44.7696 168.631 37.9725 171.428C37.2068 171.74 36.6443 170.839 36.7693 170.13C37.9725 162.919 42.7695 157.196 47.2384 151.965C53.8012 144.254 61.0203 137.244 68.5519 130.656C83.4587 117.621 99.7249 106.531 114.788 93.7211C130.492 80.3764 144.664 64.6875 153.571 45.1811C162.556 25.5058 164.759 3.03235 164.868 -18.6124C164.868 -19.9727 166.821 -19.9744 166.821 -18.6124Z" fill="#FA7001"/>
<path d="M104.115 130.36C93.0054 132.781 85.177 142.022 80.0986 152.489C73.989 165.049 74.239 178.359 82.3644 189.591C89.599 199.598 88.4116 208.195 88.1616 220.479C87.8178 237.426 100.662 251.246 116.444 247.258C130.335 243.748 132.82 229.34 132.07 216.23C131.507 206.466 131.335 199.476 137.132 191.446C145.258 180.186 148.211 170.238 144.023 156.045C141.617 147.849 136.492 140.661 129.929 135.88C124.022 131.571 116.006 132.233 109.319 130.36C108.1 130.019 108.615 127.983 109.85 128.326C117.022 130.339 124.225 130.228 130.913 134.057C136.226 137.102 140.132 143.012 143.054 148.485C149.101 159.788 150.289 174.498 143.648 185.679C140.367 191.215 135.991 195.498 134.054 201.935C131.835 209.332 134.523 218.447 134.038 226.162C133.241 238.793 125.944 247.022 114.772 249.849C103.334 252.737 93.3648 244.534 88.7396 233.855C86.1614 227.877 86.0989 221.391 86.3957 214.952C86.677 208.73 87.3021 202.691 84.6926 196.808C82.8019 192.531 79.2706 188.968 76.9111 184.931C65.0513 164.552 83.9426 132.608 103.6 128.326C104.818 128.057 105.35 130.091 104.115 130.36Z" fill="#FA7001"/>
<path d="M104.865 143.194C95.0678 148.948 89.9113 160.715 84.9111 170.944C84.3173 172.147 82.6298 171.08 83.2236 169.879C88.38 159.324 93.7553 147.311 103.881 141.372C104.99 140.722 105.974 142.545 104.865 143.194Z" fill="#FA7001"/>
<path d="M109.756 145.473C118.601 153.376 127.789 163.827 126.71 177.161C126.601 178.506 124.648 178.516 124.757 177.161C125.788 164.363 116.835 154.524 108.366 146.966C107.397 146.097 108.788 144.616 109.756 145.473Z" fill="#FA7001"/>
<path d="M107.444 183.35C106.819 200.684 112.616 217.521 109.491 234.823C109.241 236.158 107.366 235.591 107.6 234.263C110.678 217.198 104.866 200.462 105.491 183.35C105.537 181.993 107.491 181.988 107.444 183.35Z" fill="#FA7001"/>
<path d="M108.959 184.194C113.772 197.105 125.507 205.531 123.553 220.76C123.382 222.103 121.491 221.527 121.663 220.199C123.506 205.795 111.631 196.978 107.084 184.754C106.615 183.492 108.506 182.948 108.959 184.194Z" fill="#FA7001"/>
<path d="M105.397 185.385C96.9434 190.19 96.5214 201.223 96.5058 210.353C96.4902 211.714 94.537 211.714 94.5526 210.353C94.5682 200.445 95.3182 188.737 104.397 183.564C105.522 182.93 106.506 184.751 105.397 185.385Z" fill="#FA7001"/>
<path d="M89.4741 183.38C92.6149 177.885 97.162 173.897 101.6 169.664C102.537 168.768 103.928 170.254 102.99 171.156C98.6776 175.263 94.2243 179.111 91.1616 184.445C90.4897 185.598 88.8022 184.54 89.4741 183.38Z" fill="#FA7001"/>
<path d="M111.116 167.249C116.71 171.656 120.585 177.894 124.491 183.942C125.21 185.06 123.522 186.113 122.804 185.007C119.1 179.276 115.428 173.247 110.131 169.07C109.131 168.277 110.1 166.446 111.116 167.249Z" fill="#FA7001"/>
<path d="M110.131 146.435C117.022 143.043 127.991 142.741 133.71 148.85C134.616 149.807 133.225 151.297 132.335 150.342C127.319 144.983 117.194 145.269 111.115 148.258C109.975 148.816 108.99 146.999 110.131 146.435Z" fill="#FA7001"/>
<path d="M123.382 160.392C128.741 159.199 134.679 159.287 138.929 163.476C139.851 164.395 138.46 165.884 137.538 164.968C133.851 161.329 128.522 161.396 123.913 162.426C122.679 162.701 122.147 160.667 123.382 160.392Z" fill="#FA7001"/>
<path d="M77.8325 124.066C68.7384 117.735 55.7535 119.95 45.925 122.881C40.5341 124.486 35.3152 126.787 30.5963 130.029C22.6585 135.471 24.3773 142.73 25.6274 151.003C28.1744 167.931 6.14215 172.311 2.48576 186.771C-1.09251 200.964 8.90792 215.815 20.799 220.466C32.487 225.038 38.956 217.605 43.9562 207.621C46.3782 202.811 49.5814 197.451 54.7379 195.751C58.1443 194.627 61.4725 194.534 65.0195 194.912C71.7073 195.628 75.4418 196.18 77.395 187.569C77.6919 186.248 79.567 186.81 79.2701 188.129C76.7856 199.086 72.3324 197.803 63.3945 196.848C49.6753 195.387 47.347 208.024 40.7374 217.408C35.3309 225.067 26.0337 224.748 18.3615 221.747C8.17357 217.76 1.70457 206.611 0.23576 195.478C-1.07679 185.564 3.20457 177.684 10.2517 171.808C14.4863 168.279 19.1271 165.173 22.1272 160.269C26.0805 153.807 21.8147 146.219 22.174 139.254C22.7209 128.368 37.7528 123.337 45.4094 120.847C55.6285 117.514 69.3791 115.68 78.8326 122.243C79.8796 122.976 78.8951 124.803 77.8325 124.066Z" fill="#FA7001"/>
<path d="M20.7844 199.209C39.6758 194.708 54.3327 176.03 51.8326 154.659C51.6763 153.311 53.6295 153.327 53.7858 154.659C56.3953 176.908 40.9571 196.563 21.3 201.243C20.0656 201.537 19.55 199.503 20.7844 199.209Z" fill="#FA7001"/>
<path d="M17.425 187.502C24.8471 182.796 31.441 176.746 37.0194 169.664C37.8319 168.628 39.2071 170.127 38.3945 171.156C32.7225 178.368 25.9722 184.533 18.4094 189.323C17.3156 190.013 16.3312 188.189 17.425 187.502Z" fill="#FA7001"/>
<path d="M30.4406 151.498C35.8158 147.317 43.5973 146.192 49.9413 148.014C51.1601 148.364 50.6445 150.399 49.4257 150.05C43.5348 148.359 36.4095 149.454 31.425 153.319C30.4093 154.114 29.4249 152.283 30.4406 151.498Z" fill="#FA7001"/>
<path d="M34.8471 134.515C44.3318 130.839 56.426 128.128 65.8013 133.495C66.9107 134.133 65.9264 135.954 64.8169 135.318C55.926 130.228 44.3318 133.075 35.3627 136.548C34.1751 137.009 33.6595 134.97 34.8471 134.515Z" fill="#FA7001"/>
<path d="M63.9413 182.255C69.7384 170.874 70.5666 155.138 63.9413 143.939C63.2694 142.789 64.9569 141.733 65.6288 142.874C72.6292 154.711 71.7541 171.301 65.6288 183.32C65.0194 184.511 63.3319 183.446 63.9413 182.255Z" fill="#FA7001"/>
<path d="M59.6761 169.004C61.3324 164.529 64.3795 161.442 67.739 158.412C68.7078 157.548 70.0984 159.032 69.1296 159.904C66.067 162.655 63.0826 165.479 61.5669 169.565C61.0982 170.812 59.2074 170.268 59.6761 169.004Z" fill="#FA7001"/>
<path d="M32.2371 184.02C37.0029 182.837 41.6907 181.272 46.5659 180.607C47.8003 180.437 47.8003 182.548 46.5659 182.717C41.8626 183.358 37.3467 184.914 32.7527 186.054C31.5339 186.357 31.0027 184.324 32.2371 184.02Z" fill="#FA7001"/>
<path d="M18.44 174.419C23.2995 174.419 28.1591 174.419 33.0186 174.419C34.2843 174.419 34.2843 176.528 33.0186 176.528C28.1591 176.528 23.2995 176.528 18.44 176.528C17.1743 176.528 17.1743 174.419 18.44 174.419Z" fill="#FA7001"/>
</svg>
