<svg width="68" height="53" viewBox="0 0 68 53" fill="none" xmlns="http://www.w3.org/2000/svg">
<path d="M39.9562 0.328457C23.8095 2.46216 5.8495 11.5877 0.0361729 29.2989C-0.110494 29.7662 0.209558 30.2889 0.622891 30.4154C9.91621 33.2588 21.4762 29.6573 29.7028 24.9064C34.0895 22.368 37.3295 18.8788 40.1562 14.4733C42.0895 11.4528 46.5695 4.75119 46.5695 0.994707C46.5695 0.492489 46.1828 0.097681 45.7295 0.0875206C43.7828 0.0425243 41.9028 0.212337 39.9562 0.328457C38.8895 0.392323 38.8762 2.2067 39.9562 2.14283C40.1295 2.13122 44.7428 1.36919 44.2228 2.51297C43.3828 4.36073 42.5428 6.20414 41.6761 8.03593C39.6361 12.3527 37.1828 16.3341 33.9295 19.68C26.8628 26.955 15.2095 29.3335 5.82289 29.4747C1.44956 29.541 2.06281 28.1451 3.60948 24.8674C4.62281 22.7151 6.07611 20.7788 7.51611 18.9553C10.1828 15.5516 13.6095 12.9042 17.0761 10.547C23.9161 5.8877 31.9829 3.19662 39.9562 2.14283C41.0095 2.00494 41.0229 0.189114 39.9562 0.328457Z" fill="#FA7001"/>
<path d="M43.5832 1.56226C37.1966 7.17665 30.3966 12.0189 23.2766 16.4577C16.3966 20.7538 9.35657 26.6119 1.51657 28.4253C0.463236 28.6674 0.90334 30.4164 1.95667 30.1743C9.45001 28.444 15.5433 23.1414 22.1433 19.2241C30.1299 14.4937 37.7033 9.05636 44.7699 2.84685C45.5966 2.11094 44.4099 0.835062 43.5832 1.56226Z" fill="#FA7001"/>
<path d="M5.43675 25.8283C12.2634 19.1225 19.0768 12.3584 27.4901 8.06773C28.4634 7.56987 27.61 6.0066 26.65 6.50011C18.1033 10.8575 11.1967 17.7379 4.25003 24.5434C3.45003 25.3288 4.63675 26.609 5.43675 25.8283Z" fill="#FA7001"/>
<path d="M20.1565 24.7601C24.9831 22.4025 29.103 19.0045 33.2097 15.4269C34.0497 14.6954 32.8631 13.4209 32.0364 14.142C28.0231 17.6318 24.023 20.8989 19.3163 23.1924C18.3297 23.6698 19.1831 25.2329 20.1565 24.7601Z" fill="#FA7001"/>
<path d="M30.8234 9.03608C32.8901 8.05487 35.05 7.3001 37.0367 6.1331C37.9833 5.57863 37.1434 4.01247 36.1967 4.56548C34.21 5.73248 32.05 6.48871 29.9833 7.46846C28.9967 7.93439 29.8501 9.49765 30.8234 9.03608Z" fill="#FA7001"/>
<path d="M60.2093 6.64238C46.7693 16.4587 34.5427 33.308 36.6227 51.8901C36.6894 52.5013 37.0893 52.8868 37.676 52.7638C46.636 50.8518 55.116 42.6079 60.4493 34.8916C63.4093 30.6165 65.5426 25.7705 66.1426 20.4244C66.596 16.296 68.1826 7.72812 66.4093 3.91648C66.196 3.45055 65.6626 3.38814 65.276 3.5899C63.516 4.50579 61.9026 5.58424 60.2093 6.64238C59.2893 7.22589 60.1293 8.79496 61.0493 8.21001C65.1959 5.61038 64.9826 6.05453 65.0093 11.1696C65.0226 17.1398 64.5159 23.0092 62.1826 28.4874C58.4493 37.2487 50.9294 43.663 43.4894 48.4672C38.9027 51.4223 37.876 51.132 38.0093 45.6356C38.156 40.0848 40.236 34.6416 42.5294 29.8068C46.716 21.0366 53.5826 13.6634 61.0493 8.21001C61.9426 7.56264 61.116 5.98921 60.2093 6.64238Z" fill="#FA7001"/>
<path d="M64.0761 5.75846C60.3828 14.6619 55.8894 23.0036 50.8761 31.1031C46.7561 37.7669 43.4228 45.5205 37.5562 50.5951C36.7162 51.3236 37.9028 52.5983 38.7295 51.8798C44.1295 47.209 47.2361 40.413 50.9161 34.222C56.2627 25.2376 61.4628 16.4605 65.5295 6.67436C65.9561 5.61767 64.5294 4.69451 64.0761 5.75846Z" fill="#FA7001"/>
<path d="M40.0234 46.2797C43.3167 37.018 46.5567 27.6978 52.2233 19.7927C52.8767 18.8816 51.7032 17.5882 51.0499 18.5096C45.1966 26.6788 41.81 36.2253 38.41 45.7978C38.0233 46.8909 39.6367 47.3599 40.0234 46.2797Z" fill="#FA7001"/>
<path d="M52.5968 38.2938C55.9301 33.8088 58.2235 28.8011 60.4235 23.5757C60.8635 22.5189 59.4234 21.5976 58.9834 22.6595C56.8501 27.7329 54.6634 32.6534 51.4101 37.0095C50.7434 37.9093 51.9168 39.2009 52.5968 38.2938Z" fill="#FA7001"/>
<path d="M55.596 19.0211C57.0894 17.0655 58.7427 15.2818 60.076 13.1916C60.7027 12.2264 59.2494 11.3206 58.636 12.2757C57.396 14.2351 55.8094 15.9043 54.4227 17.7363C53.7427 18.6316 54.916 19.9221 55.596 19.0211Z" fill="#FA7001"/>
</svg>
